<svg xmlns="http://www.w3.org/2000/svg" viewBox="0 0 430 104" role="img" aria-labelledby="title desc">
  <title id="title">TruePower Solutions</title>
  <desc id="desc">Stylized bulb, plug, and lightning icon with the TruePower Solutions wordmark.</desc>
  <defs>
    <linearGradient id="tpBlue" x1="0%" y1="0%" x2="100%" y2="100%">
      <stop offset="0%" stop-color="#178fd1"/>
      <stop offset="100%" stop-color="#08549b"/>
    </linearGradient>
    <linearGradient id="tpTeal" x1="0%" y1="0%" x2="100%" y2="100%">
      <stop offset="0%" stop-color="#12c6c0"/>
      <stop offset="100%" stop-color="#0d8fab"/>
    </linearGradient>
    <linearGradient id="tpGreen" x1="0%" y1="0%" x2="100%" y2="0%">
      <stop offset="0%" stop-color="#1cb98d"/>
      <stop offset="100%" stop-color="#59a80f"/>
    </linearGradient>
    <linearGradient id="tpBolt" x1="0%" y1="0%" x2="0%" y2="100%">
      <stop offset="0%" stop-color="#ffc533"/>
      <stop offset="100%" stop-color="#f07d00"/>
    </linearGradient>
  </defs>

  <g transform="translate(8 8)">
    <path d="M38 84c1 6 6 10 12 10h18c6 0 11-4 12-10" fill="none" stroke="#0f8f9f" stroke-width="7" stroke-linecap="round"/>
    <path d="M42 72h35M45 81h29" fill="none" stroke="#0f8f9f" stroke-width="6" stroke-linecap="round"/>
    <path d="M59 14c-16 0-30 8-39 22-6 10-9 20-9 32 0 16 6 29 18 40" fill="none" stroke="url(#tpBlue)" stroke-width="8" stroke-linecap="round"/>
    <path d="M57 22c-11 0-21 5-28 13-7 8-11 19-11 29 0 12 4 21 13 31" fill="none" stroke="#2eaadf" stroke-width="4" stroke-linecap="round"/>
    <path d="M70 16c18 2 33 12 42 28" fill="none" stroke="url(#tpTeal)" stroke-width="8" stroke-linecap="round"/>
    <path d="M96 41c-9 15-27 24-46 24" fill="none" stroke="url(#tpTeal)" stroke-width="8" stroke-linecap="round"/>
    <path d="M83 62c20 0 35 5 45 15" fill="none" stroke="url(#tpGreen)" stroke-width="8" stroke-linecap="round"/>
    <path d="M18 60C8 59 2 62-2 69" fill="none" stroke="url(#tpBlue)" stroke-width="8" stroke-linecap="round"/>
    <path d="M98 14l11-3 7 12-8 3" fill="url(#tpTeal)"/>
    <path d="M111 18l9-8M115 24l12-2" fill="none" stroke="#16759d" stroke-width="5" stroke-linecap="round"/>
    <path d="M56 14l-12 31h13l-8 31 27-37H61l9-25z" fill="url(#tpBolt)"/>
  </g>

  <g transform="translate(146 24)">
    <text x="0" y="36" font-family="Arial, Helvetica, sans-serif" font-size="44" font-weight="700" fill="#0f67b6">True</text>
    <text x="104" y="36" font-family="Arial, Helvetica, sans-serif" font-size="44" font-weight="700" fill="#63a70f">Power</text>
    <text x="2" y="72" font-family="Arial, Helvetica, sans-serif" font-size="18" font-weight="500" letter-spacing="10" fill="#4b5563">SOLUTIONS</text>
  </g>
</svg>
